<svg width="28" height="24" viewBox="0 0 28 24" fill="none" xmlns="http://www.w3.org/2000/svg">
<path d="M26.7972 20.8844L15.3365 1.03828C15.1542 0.722586 14.892 0.460438 14.5762 0.278182C14.2605 0.0959266 13.9024 -1.4883e-05 13.5378 7.77597e-09C13.1733 -3.15353e-05 12.8151 0.0959028 12.4994 0.27816C12.1837 0.460417 11.9215 0.722575 11.7392 1.03828L0.278513 20.8844C0.0961141 21.2001 5.66874e-05 21.5583 2.50825e-08 21.923C-5.66372e-05 22.2876 0.0958895 22.6458 0.278191 22.9616C0.460492 23.2774 0.722721 23.5396 1.03851 23.7219C1.3543 23.9041 1.71252 24.0001 2.07714 24H24.9985C25.3631 24 25.7213 23.904 26.037 23.7217C26.3528 23.5394 26.615 23.2772 26.7973 22.9614C26.9795 22.6457 27.0755 22.2875 27.0755 21.9229C27.0755 21.5583 26.9795 21.2002 26.7972 20.8844ZM2.07714 21.923L13.5378 2.07689L24.9985 21.923H2.07714Z" fill="#A76B37"/>
<path d="M12.0998 9.22717L12.6954 16.0461C12.7302 16.4475 13.0488 16.7783 13.464 16.8146C13.9291 16.8553 14.339 16.5112 14.3796 16.0461L14.9752 9.22717C14.9816 9.14748 14.9825 9.05817 14.9752 8.97602C14.9059 8.1819 14.206 7.59449 13.412 7.66375C12.618 7.73317 12.0305 8.43322 12.0998 9.22717Z" fill="#A76B37"/>
<path d="M13.5379 19.6198C14.1958 19.6198 14.7292 19.0865 14.7292 18.4286C14.7292 17.7706 14.1958 17.2373 13.5379 17.2373C12.88 17.2373 12.3467 17.7706 12.3467 18.4286C12.3467 19.0865 12.88 19.6198 13.5379 19.6198Z" fill="#A76B37"/>
</svg>
