<svg width="27" height="30" viewBox="0 0 27 30" fill="none" xmlns="http://www.w3.org/2000/svg">
<path d="M13.9349 16.0876L13.498 16.5206L13.0635 16.0881C12.3284 15.3943 11.3558 15.0078 10.3449 15.0078C9.33406 15.0078 8.36146 15.3943 7.62632 16.0881C7.26898 16.4423 6.98534 16.8637 6.79177 17.3281C6.5982 17.7925 6.49854 18.2906 6.49854 18.7937C6.49854 19.2968 6.5982 19.795 6.79177 20.2593C6.98534 20.7237 7.26898 21.1451 7.62632 21.4993L12.926 26.7625C13.0009 26.8379 13.09 26.8977 13.1882 26.9385C13.2864 26.9792 13.3917 27.0001 13.498 27C13.7133 27.0003 13.9201 26.9157 14.0734 26.7645L19.3726 21.5003C19.7292 21.1458 20.0122 20.7243 20.2053 20.2601C20.3984 19.7959 20.4978 19.298 20.4978 18.7952C20.4978 18.2924 20.3984 17.7946 20.2053 17.3303C20.0122 16.8661 19.7292 16.4446 19.3726 16.0901C18.6377 15.3959 17.6652 15.009 16.6543 15.0085C15.6433 15.008 14.6705 15.3941 13.9349 16.0876ZM18.6671 20.7903L13.498 25.924L8.33178 20.7903C8.06792 20.5291 7.85846 20.2181 7.71552 19.8754C7.57257 19.5327 7.49897 19.165 7.49897 18.7937C7.49897 18.4224 7.57257 18.0548 7.71552 17.712C7.85846 17.3693 8.06792 17.0584 8.33178 16.7971C8.87633 16.2831 9.59682 15.9967 10.3457 15.9967C11.0945 15.9967 11.815 16.2831 12.3595 16.7971L13.148 17.58C13.2417 17.6732 13.3684 17.7254 13.5005 17.7254C13.6325 17.7254 13.7593 17.6732 13.8529 17.58L14.6424 16.7966C15.1871 16.2826 15.9076 15.9964 16.6565 15.9964C17.4054 15.9964 18.126 16.2826 18.6706 16.7966C18.9338 17.0582 19.1427 17.3692 19.2852 17.7119C19.4277 18.0545 19.5011 18.4219 19.5011 18.793C19.5011 19.164 19.4277 19.5315 19.2852 19.8741C19.1427 20.2167 18.9338 20.5277 18.6706 20.7893L18.6671 20.7903Z" fill="black"/>
<path d="M22.4974 4.0016H18.7876C18.5335 3.09859 18.0514 2.27612 17.3877 1.61325C16.7133 0.934689 15.8726 0.444972 14.9496 0.193016C14.0267 -0.0589404 13.0538 -0.0643169 12.1281 0.177424C11.2025 0.419164 10.3564 0.899559 9.67455 1.57062C8.99266 2.24168 8.49878 3.07992 8.24225 4.0016H4.49848C4.10068 4.0016 3.71917 4.15962 3.43789 4.44091C3.1566 4.7222 2.99857 5.10371 2.99857 5.50151V8.10135L2.86308 8.18584C2.60382 8.34838 2.38513 8.568 2.2237 8.82795C2.06227 9.0879 1.96238 9.3813 1.93164 9.68575L0.0112587 27.2632C-0.0217471 27.6098 0.0180096 27.9594 0.127982 28.2898C0.237954 28.6201 0.415716 28.9238 0.649881 29.1815C0.884045 29.4391 1.16945 29.645 1.4878 29.786C1.80616 29.9269 2.15044 29.9998 2.49861 30H24.4973C24.8461 30 25.191 29.927 25.5099 29.7857C25.8288 29.6443 26.1146 29.4379 26.3489 29.1795C26.5832 28.9211 26.7609 28.6165 26.8705 28.2854C26.98 27.9542 27.0191 27.6038 26.9851 27.2567L25.0652 9.69225C25.0355 9.38645 24.9361 9.09153 24.7746 8.83014C24.6131 8.56874 24.3939 8.34783 24.1338 8.18434L23.9973 8.10135V5.50151C23.9973 5.10371 23.8393 4.7222 23.558 4.44091C23.2767 4.15962 22.8952 4.0016 22.4974 4.0016ZM20.9975 7.40639L22.7529 8.50132H20.9975V7.40639ZM21.4184 6.49045L22.9863 5.44601C22.991 5.46429 22.9947 5.48282 22.9973 5.50151V7.47589L21.4184 6.49045ZM21.8504 5.00154L20.6675 5.78899C20.4611 5.92505 20.2919 6.1103 20.1749 6.32806C20.058 6.54582 19.997 6.78924 19.9975 7.03641V8.50132H18.9976V5.50151C18.9976 5.33352 18.9881 5.16703 18.9736 5.00154H21.8504ZM8.99821 5.657C8.98105 4.49922 9.40165 3.37766 10.1759 2.51666C10.9501 1.65567 12.0209 1.11874 13.1739 1.01328C13.7906 0.968771 14.4097 1.0518 14.9929 1.25719C15.576 1.46258 16.1105 1.78592 16.5631 2.20705C17.0157 2.62818 17.3767 3.13805 17.6235 3.70487C17.8703 4.27169 17.9977 4.88328 17.9977 5.50151V12.0011H16.9977V5.50151C16.9969 4.58912 16.6402 3.71303 16.0036 3.05948C15.3669 2.40593 14.5005 2.02645 13.5884 2.00172H13.5039C12.6083 2.00578 11.7503 2.36231 11.1156 2.99416C10.764 3.33707 10.4842 3.74649 10.2923 4.19858C10.1005 4.65067 10.0005 5.1364 9.99815 5.6275V12.0011H8.99821V5.657ZM10.9981 5.6275C11.0012 5.41616 11.0299 5.20597 11.0836 5.00154H15.9478C15.9811 5.1661 15.9979 5.3336 15.9978 5.50151V8.50132H10.9981V5.6275ZM11.5695 4.0016C11.6441 3.89884 11.7258 3.80144 11.814 3.71012C12.0416 3.48349 12.3118 3.30426 12.6091 3.1828C12.9064 3.06134 13.2248 3.00007 13.546 3.00254C13.8671 3.005 14.1845 3.07115 14.4799 3.19716C14.7753 3.32317 15.0428 3.50652 15.2668 3.73662C15.3461 3.81959 15.4193 3.90814 15.4858 4.0016H11.5695ZM7.99827 5.657V8.50132H6.99833V7.03641C6.99896 6.78965 6.93824 6.5466 6.82165 6.32912C6.70505 6.11164 6.53623 5.92655 6.33037 5.79049L5.14844 5.00154H8.04226C8.0152 5.21902 8.00051 5.43785 7.99827 5.657ZM5.99839 7.40689V8.50132H4.2445L5.99839 7.40689ZM3.99851 5.50151C4.00109 5.48277 4.00494 5.46423 4.01001 5.44601L5.57742 6.48995L3.99851 7.47539V5.50151ZM25.9912 27.3582C26.0109 27.5662 25.987 27.7761 25.9209 27.9744C25.8549 28.1727 25.7481 28.355 25.6074 28.5096C25.4667 28.6642 25.2953 28.7877 25.1042 28.8721C24.913 28.9566 24.7063 29.0002 24.4973 29.0001H2.49861C2.29024 29 2.08418 28.9565 1.89354 28.8724C1.70291 28.7883 1.53189 28.6654 1.39139 28.5116C1.25088 28.3577 1.14398 28.1763 1.07749 27.9788C1.01099 27.7813 0.986376 27.5722 1.0052 27.3647L2.92658 9.78624C2.93774 9.68791 2.9637 9.59184 3.00357 9.50126H7.99827V12.0011C7.99827 12.2663 8.10362 12.5206 8.29114 12.7082C8.47867 12.8957 8.73301 13.001 8.99821 13.001H9.99815C10.2633 13.001 10.5177 12.8957 10.7052 12.7082C10.8927 12.5206 10.9981 12.2663 10.9981 12.0011V9.50126H15.9978V12.0011C15.9978 12.2663 16.1031 12.5206 16.2907 12.7082C16.4782 12.8957 16.7325 13.001 16.9977 13.001H17.9977C18.2629 13.001 18.5172 12.8957 18.7047 12.7082C18.8922 12.5206 18.9976 12.2663 18.9976 12.0011V9.50126H23.9923C24.0328 9.59414 24.0593 9.69255 24.0708 9.79324L25.9912 27.3582Z" fill="black"/>
</svg>
