<svg width="7" height="11" viewBox="0 0 7 11" fill="none" xmlns="http://www.w3.org/2000/svg">
<path d="M6.30566 4.69336C6.76424 5.15194 6.76424 5.84709 6.30566 6.30566L2.10644 10.5059C1.6479 10.9644 0.95272 10.9643 0.49414 10.5059C0.385369 10.3971 0.297823 10.2823 0.238281 10.1484C0.178493 10.0139 0.150434 9.86753 0.15039 9.7002C0.15039 9.53269 0.178447 9.3856 0.238281 9.25098C0.297821 9.1172 0.385413 9.00228 0.49414 8.89355L3.88867 5.49902L0.494141 2.10547C0.0356927 1.64692 0.0356928 0.952687 0.494141 0.49414C0.952719 0.0355618 1.64787 0.0355618 2.10645 0.49414L6.30566 4.69336Z" fill="black" stroke="black" stroke-width="0.3"/>
</svg>
