<svg width="21" height="20" viewBox="0 0 21 20" fill="none" xmlns="http://www.w3.org/2000/svg">
<mask id="mask0_106_1959" style="mask-type:alpha" maskUnits="userSpaceOnUse" x="0" y="0" width="21" height="20">
<path d="M10.499 0.5C10.6276 0.5 10.7634 0.534135 10.9111 0.618164C11.0228 0.681725 11.1101 0.776553 11.1729 0.926758L11.1738 0.928711L13.4727 6.37109L13.5898 6.64844L13.8896 6.67383L19.8252 7.19238C20.038 7.22458 20.1588 7.28773 20.2275 7.34766C20.3212 7.42938 20.3983 7.53958 20.4541 7.69238C20.5033 7.82735 20.5133 7.96125 20.4824 8.10449C20.4576 8.21942 20.3944 8.33632 20.2607 8.45703L15.7539 12.3398L15.5244 12.5381L15.5928 12.833L16.9414 18.6094V18.6104C16.9811 18.7819 16.9626 18.9042 16.916 19.002C16.8468 19.147 16.7531 19.2627 16.6328 19.3555C16.5293 19.4352 16.4068 19.4846 16.251 19.498C16.1248 19.5089 15.9986 19.4801 15.8584 19.3906L15.8467 19.3838L10.7568 16.3262L10.499 16.1719L10.2422 16.3262L5.15234 19.3838L5.1416 19.3906C5.00099 19.4798 4.87349 19.5086 4.74609 19.498C4.59157 19.4852 4.47015 19.4362 4.36719 19.3564C4.2458 19.2623 4.15124 19.1456 4.08203 19.001C4.03603 18.9047 4.01675 18.7823 4.05664 18.6094L5.40625 12.833L5.47461 12.5381L5.24512 12.3398L0.744141 8.46191C0.607895 8.33904 0.542856 8.2204 0.517578 8.10352C0.486488 7.95951 0.496366 7.82542 0.544922 7.69141C0.59965 7.54052 0.676589 7.43051 0.771484 7.34766C0.841882 7.2862 0.964528 7.22346 1.17969 7.19238L7.10938 6.67383L7.40918 6.64844L7.52637 6.37109L9.8252 0.928711L9.82617 0.926758C9.88894 0.776528 9.97621 0.681724 10.0879 0.618164C10.2355 0.534234 10.3706 0.50008 10.499 0.5Z" fill="black" stroke="black"/>
</mask>
<g mask="url(#mask0_106_1959)">
<path d="M10.499 0.5C10.6276 0.5 10.7634 0.534135 10.9111 0.618164C11.0228 0.681725 11.1101 0.776553 11.1729 0.926758L11.1738 0.928711L13.4727 6.37109L13.5898 6.64844L13.8896 6.67383L19.8252 7.19238C20.038 7.22458 20.1588 7.28773 20.2275 7.34766C20.3212 7.42938 20.3983 7.53958 20.4541 7.69238C20.5033 7.82735 20.5133 7.96125 20.4824 8.10449C20.4576 8.21942 20.3944 8.33632 20.2607 8.45703L15.7539 12.3398L15.5244 12.5381L15.5928 12.833L16.9414 18.6094V18.6104C16.9811 18.7819 16.9626 18.9042 16.916 19.002C16.8468 19.147 16.7531 19.2627 16.6328 19.3555C16.5293 19.4352 16.4068 19.4846 16.251 19.498C16.1248 19.5089 15.9986 19.4801 15.8584 19.3906L15.8467 19.3838L10.7568 16.3262L10.499 16.1719L10.2422 16.3262L5.15234 19.3838L5.1416 19.3906C5.00099 19.4798 4.87349 19.5086 4.74609 19.498C4.59157 19.4852 4.47015 19.4362 4.36719 19.3564C4.2458 19.2623 4.15124 19.1456 4.08203 19.001C4.03603 18.9047 4.01675 18.7823 4.05664 18.6094L5.40625 12.833L5.47461 12.5381L5.24512 12.3398L0.744141 8.46191C0.607895 8.33904 0.542856 8.2204 0.517578 8.10352C0.486488 7.95951 0.496366 7.82542 0.544922 7.69141C0.59965 7.54052 0.676589 7.43051 0.771484 7.34766C0.841882 7.2862 0.964528 7.22346 1.17969 7.19238L7.10938 6.67383L7.40918 6.64844L7.52637 6.37109L9.8252 0.928711L9.82617 0.926758C9.88894 0.776528 9.97621 0.681724 10.0879 0.618164C10.2355 0.534234 10.3706 0.50008 10.499 0.5Z" fill="black" fill-opacity="0.01" stroke="black"/>
<path d="M0 4.85778e-06L13.3431 0V19L0 19V4.85778e-06Z" fill="black"/>
</g>
</svg>
