<svg width="15" height="28" viewBox="0 0 15 28" fill="none" xmlns="http://www.w3.org/2000/svg">
<path d="M14.307 0C14.3503 0.0148195 14.3935 0.0308739 14.4367 0.0444584C14.7961 0.158074 14.9048 0.307504 14.906 0.680461C14.906 2.0278 14.9085 3.37513 14.9109 4.72124C14.9109 5.0769 14.7158 5.31525 14.3577 5.32389C13.6612 5.34242 12.9647 5.32636 12.2681 5.34118C11.8902 5.34859 11.5099 5.36588 11.1357 5.41775C10.5021 5.50543 10.0921 5.94631 10.0069 6.5959C9.9847 6.76262 9.97482 6.93181 9.97359 7.101C9.96988 7.99263 9.97235 8.88304 9.97235 9.77468C9.97235 9.83025 9.97235 9.88459 9.97235 9.95745C10.0452 9.95745 10.1057 9.95745 10.165 9.95745C11.4457 9.95745 12.7263 9.95745 14.007 9.95745C14.5306 9.95745 14.7566 10.176 14.7652 10.7021C14.7714 11.1368 14.7677 11.5728 14.7677 12.0087C14.7677 12.9312 14.7677 13.8525 14.7677 14.775C14.7677 14.8874 14.759 14.9998 14.7405 15.1109C14.6887 15.4184 14.454 15.6135 14.1391 15.6148C12.8128 15.6148 11.4864 15.6148 10.1588 15.6148C10.1033 15.6148 10.0477 15.6148 9.97482 15.6148V15.805C9.97482 19.5037 9.97482 23.2011 9.97482 26.8998C9.97482 27.4234 9.73771 27.6642 9.2178 27.6642C7.79389 27.6642 6.36999 27.6642 4.94608 27.6642C4.8794 27.6642 4.81271 27.6618 4.74726 27.6507C4.31626 27.5766 4.16806 27.4061 4.16683 26.9665C4.16559 23.3036 4.16683 19.642 4.16683 15.9791C4.16683 15.8667 4.16683 15.7543 4.16683 15.6148H3.96923C2.88371 15.6148 1.79695 15.6148 0.71142 15.6148C0.210028 15.6148 -0.00114943 15.4061 8.55305e-05 14.9084C8.55305e-05 13.8784 0.0037904 12.8497 0.0037904 11.8198C0.0037904 11.4406 0.0037904 11.0615 8.55305e-05 10.6824C-0.00485429 10.1723 0.203853 9.95868 0.71142 9.95868C1.80189 9.95868 2.89359 9.95868 3.98405 9.95868C4.03963 9.95868 4.0952 9.95868 4.16683 9.95868C4.17053 9.89447 4.17671 9.84013 4.17671 9.78579C4.18165 8.59282 4.14089 7.39739 4.19894 6.20689C4.28168 4.53105 4.8337 3.01823 6.04025 1.80674C6.87014 0.97438 7.88528 0.456934 9.03502 0.218587C9.39316 0.14449 9.76365 0.125965 10.128 0.082742C10.1576 0.0790372 10.186 0.0753323 10.2156 0.0543381C10.1255 0.0358137 10.0353 0.0185243 9.94518 0C11.4 0 12.8547 0 14.3095 0L14.307 0Z" fill="white"/>
</svg>
