<svg width="30" height="32" viewBox="0 0 30 32" fill="none" xmlns="http://www.w3.org/2000/svg">
<path d="M27.4039 17.5182C25.0454 17.1375 23.0697 15.5163 22.075 13.294C22.0419 13.2974 22.0119 13.2974 21.9819 13.2974C18.067 13.2974 14.9004 9.90925 14.9004 5.73162C14.9004 4.83919 15.0466 3.9822 15.3128 3.18596C15.5724 2.41436 15.0735 1.57864 14.3049 1.57526H14.232C6.03936 1.57526 -0.539984 8.97767 0.0350297 17.8666C0.530786 25.5218 6.43154 31.6547 13.603 31.9855C21.1002 32.3305 27.3834 26.4743 28.3414 18.8157C28.4213 18.1865 27.9925 17.6107 27.4039 17.5182ZM5.83979 20.4548C5.71001 20.5864 5.5436 20.6505 5.38067 20.6505C5.20447 20.6505 5.02795 20.5796 4.89849 20.4335L3.89719 19.3136C3.64457 19.029 3.65405 18.5777 3.92056 18.3077C4.18643 18.037 4.60893 18.0478 4.86155 18.3324L5.85937 19.4486C6.11578 19.7331 6.10567 20.1844 5.83979 20.4548ZM7.69904 13.5286C7.27306 13.5283 6.8646 13.3474 6.56337 13.0254C6.26213 12.7035 6.09274 12.2669 6.09241 11.8116C6.09324 11.3564 6.26278 10.9201 6.5639 10.5982C6.86502 10.2763 7.27319 10.0951 7.69904 10.0942C8.12506 10.0945 8.53357 10.2755 8.83482 10.5975C9.13606 10.9195 9.30541 11.3562 9.30566 11.8116C9.30579 12.0371 9.26432 12.2605 9.18362 12.4689C9.10292 12.6774 8.98459 12.8667 8.83537 13.0262C8.68616 13.1857 8.509 13.3122 8.31401 13.3985C8.11903 13.4847 7.91006 13.5287 7.69904 13.5286ZM10.5662 5.20879L11.654 4.9067C11.7383 4.88268 11.8263 4.87669 11.9127 4.88909C11.9992 4.90149 12.0825 4.93202 12.1579 4.97894C12.2333 5.02586 12.2993 5.08824 12.3521 5.16249C12.4049 5.23675 12.4435 5.32142 12.4656 5.41164C12.4884 5.50177 12.4942 5.59583 12.4828 5.6884C12.4713 5.78095 12.4428 5.87017 12.3989 5.95086C12.3549 6.03155 12.2965 6.10211 12.2268 6.15846C12.1572 6.2148 12.0777 6.25581 11.9932 6.2791L10.9022 6.58491C10.8457 6.60279 10.7891 6.60988 10.7358 6.60988C10.4399 6.60988 10.1706 6.39656 10.0907 6.07996C10.0459 5.89708 10.0709 5.7027 10.16 5.53945C10.2492 5.3762 10.3952 5.2574 10.5662 5.20913V5.20879ZM11.8236 28.9845C11.4019 28.9845 10.9975 28.8055 10.6994 28.4868C10.4012 28.168 10.2337 27.7358 10.2337 27.285C10.2344 26.8348 10.4022 26.4033 10.7003 26.0853C10.9984 25.7673 11.4024 25.5888 11.8236 25.5889C12.2448 25.5888 12.6488 25.7673 12.9469 26.0853C13.245 26.4033 13.4128 26.8348 13.4135 27.285C13.4135 27.7358 13.246 28.168 12.9478 28.4868C12.6497 28.8055 12.2453 28.9845 11.8236 28.9845ZM15.3627 18.2824C15.318 18.4225 15.2334 18.5442 15.1207 18.6303C15.008 18.7163 14.8729 18.7625 14.7343 18.7624C14.6608 18.7624 14.591 18.7519 14.5212 18.7269L13.1975 18.247C13.1134 18.2182 13.0354 18.1719 12.9682 18.1105C12.901 18.0492 12.846 17.9742 12.8062 17.8899C12.7665 17.8055 12.7429 17.7136 12.7368 17.6194C12.7307 17.5252 12.7423 17.4306 12.7708 17.3412C12.7993 17.2518 12.8442 17.1694 12.9029 17.0988C12.9615 17.0282 13.0328 16.9709 13.1125 16.93C13.1921 16.8892 13.2786 16.8658 13.3668 16.8612C13.4551 16.8565 13.5433 16.8707 13.6263 16.9029L14.9469 17.3795C15.0297 17.4096 15.1061 17.4568 15.1718 17.5184C15.2376 17.5801 15.2913 17.6549 15.3299 17.7388C15.3685 17.8227 15.3913 17.9138 15.3969 18.0071C15.4026 18.1004 15.3909 18.1939 15.3627 18.2824ZM18.5195 19.6157C18.5195 19.2007 18.6737 18.8028 18.9481 18.5094C19.2226 18.216 19.5949 18.0512 19.983 18.0512C20.3712 18.0512 20.7435 18.216 21.018 18.5094C21.2924 18.8028 21.4466 19.2007 21.4466 19.6157C21.4466 20.0306 21.2924 20.4285 21.018 20.7219C20.7435 21.0153 20.3712 21.1801 19.983 21.1801C19.5949 21.1801 19.2226 21.0153 18.9481 20.7219C18.6737 20.4285 18.5195 20.0306 18.5195 19.6157ZM22.6503 27.2854C22.5206 27.442 22.3409 27.52 22.1577 27.52C21.9983 27.52 21.8388 27.4596 21.7125 27.3387L21.0005 26.6488C20.9357 26.5863 20.8831 26.5108 20.8457 26.4266C20.8083 26.3423 20.7868 26.2511 20.7825 26.1579C20.7782 26.0648 20.791 25.9717 20.8204 25.8839C20.8498 25.7961 20.8951 25.7154 20.9537 25.6463C21.0122 25.5771 21.0828 25.5208 21.1617 25.4808C21.2405 25.4408 21.3259 25.4178 21.4131 25.4132C21.5002 25.4085 21.5874 25.4223 21.6696 25.4538C21.7517 25.4852 21.8273 25.5337 21.8919 25.5964L22.6036 26.2826C22.8764 26.5459 22.8998 26.9938 22.6503 27.2854ZM21.4299 4.95632C22.6939 4.44799 24.0009 3.02563 24.1209 2.47816C24.4136 1.14491 22.9165 0 21.4299 0C19.9429 0 18.7389 1.10947 18.7389 2.47816C18.7389 3.84719 20.0361 5.51122 21.4299 4.95632ZM26.2495 7.78314C25.388 8.31644 24.8459 9.89879 25.7373 10.6842C26.5457 11.3954 27.9527 11.7795 28.3417 11.655C29.2932 11.3458 29.4327 9.82386 28.8539 8.75388C28.2751 7.68728 27.1109 7.24984 26.2495 7.78314ZM28.894 1.66774C28.6007 1.66739 28.3193 1.79151 28.1116 2.01284C27.9039 2.23417 27.7869 2.53459 27.7863 2.84809C27.7863 3.0036 27.8149 3.15759 27.8705 3.30127C27.9262 3.44494 28.0078 3.57549 28.1107 3.68545C28.2135 3.79541 28.3357 3.88262 28.4701 3.94211C28.6045 4.0016 28.7485 4.0322 28.894 4.03215C29.1873 4.03215 29.4687 3.9076 29.6761 3.68589C29.8835 3.46419 30 3.16349 30 2.84995C30 2.53641 29.8835 2.23571 29.6761 2.014C29.4687 1.7923 29.1873 1.66774 28.894 1.66774Z" fill="#A17339"/>
</svg>
