<svg width="25" height="25" viewBox="0 0 25 25" fill="none" xmlns="http://www.w3.org/2000/svg">
<path d="M19.2145 0.000492107H5.26001C3.88453 -0.0185591 2.55786 0.516219 1.57154 1.48731C0.585229 2.45839 0.0199741 3.78634 0 5.17929V19.7227C0.00777697 20.4112 0.149487 21.0914 0.417024 21.7244C0.684562 22.3574 1.07268 22.9308 1.55919 23.4117C2.04569 23.8927 2.62104 24.2719 3.25234 24.5275C3.88364 24.7831 4.5585 24.9102 5.23834 24.9015H19.1766C19.8559 24.9095 20.5302 24.7819 21.1609 24.5259C21.7916 24.27 22.3663 23.8907 22.8522 23.4098C23.3381 22.9289 23.7258 22.3558 23.993 21.7231C24.2602 21.0905 24.4017 20.4108 24.4095 19.7227V5.17929C24.3952 3.79601 23.8407 2.47471 22.8672 1.50427C21.8937 0.533821 20.5804 -0.00683402 19.2145 0.000492107ZM22.3456 19.7227C22.3456 20.5361 22.0265 21.3161 21.4586 21.8912C20.8907 22.4663 20.1205 22.7894 19.3174 22.7894H5.26001C4.45767 22.8175 3.67714 22.5219 3.09 21.9674C2.50286 21.4129 2.15717 20.645 2.12892 19.8324V5.17929C2.12749 4.77663 2.20466 4.37765 2.356 4.00529C2.50733 3.63292 2.72985 3.29452 3.01075 3.00954C3.29165 2.72456 3.6254 2.4986 3.99281 2.34467C4.36023 2.19075 4.75406 2.11189 5.15167 2.11261H19.1982C20.0006 2.08447 20.7811 2.38015 21.3682 2.93464C21.9554 3.48913 22.3011 4.25705 22.3293 5.06958V5.17929L22.3456 19.7227Z" fill="white"/>
<path d="M12.2383 5.97656C10.9751 5.97656 9.74033 6.3559 8.69003 7.06662C7.63974 7.77733 6.82113 8.7875 6.33773 9.96938C5.85433 11.1513 5.72785 12.4518 5.97428 13.7064C6.22072 14.9611 6.829 16.1136 7.72221 17.0182C8.61541 17.9227 9.75343 18.5387 10.9923 18.7883C12.2312 19.0379 13.5154 18.9098 14.6824 18.4202C15.8495 17.9307 16.847 17.1017 17.5487 16.038C18.2505 14.9744 18.6251 13.7238 18.6251 12.4446C18.6251 10.7291 17.9522 9.08399 16.7545 7.871C15.5567 6.65802 13.9322 5.97656 12.2383 5.97656ZM12.2383 16.7072C11.3941 16.7072 10.5688 16.4537 9.86678 15.9787C9.1648 15.5036 8.61767 14.8285 8.29459 14.0386C7.9715 13.2486 7.88697 12.3794 8.05167 11.5409C8.21638 10.7023 8.62293 9.932 9.21992 9.32742C9.81691 8.72284 10.5775 8.31112 11.4056 8.14432C12.2336 7.97751 13.0919 8.06312 13.8719 8.39032C14.6519 8.71751 15.3186 9.2716 15.7876 9.98251C16.2567 10.6934 16.507 11.5292 16.507 12.3842V12.4446C16.5013 13.5893 16.0498 14.6855 15.2505 15.495C14.4511 16.3045 13.3687 16.7618 12.2383 16.7676V16.7072Z" fill="white"/>
<path d="M19.0904 7.17207C19.9191 7.17207 20.5909 6.49171 20.5909 5.65244C20.5909 4.81317 19.9191 4.13281 19.0904 4.13281C18.2617 4.13281 17.5898 4.81317 17.5898 5.65244C17.5898 6.49171 18.2617 7.17207 19.0904 7.17207Z" fill="white"/>
</svg>
