<svg width="26" height="25" viewBox="0 0 26 25" fill="none" xmlns="http://www.w3.org/2000/svg">
<path d="M5.45645 2.72959C5.45609 3.45316 5.16831 4.14695 4.65641 4.65834C4.14451 5.16973 3.45043 5.45682 2.72686 5.45645C2.00329 5.45609 1.3095 5.16831 0.798115 4.65641C0.286729 4.14451 -0.000361444 3.45043 3.41521e-07 2.72686C0.000362127 2.00329 0.288146 1.3095 0.800044 0.798115C1.31194 0.286729 2.00602 -0.000361444 2.72959 3.41521e-07C3.45316 0.000362127 4.14695 0.288146 4.65834 0.800044C5.16973 1.31194 5.45682 2.00602 5.45645 2.72959ZM5.5383 7.47671H0.0818471V24.5554H5.5383V7.47671ZM14.1595 7.47671H8.73033V24.5554H14.1049V15.5932C14.1049 10.6005 20.6118 10.1367 20.6118 15.5932V24.5554H26V13.738C26 5.32141 16.3694 5.63515 14.1049 9.76842L14.1595 7.47671Z" fill="white"/>
</svg>
