<svg width="59" height="44" viewBox="0 0 59 44" fill="none" xmlns="http://www.w3.org/2000/svg">
<path d="M11.8877 0.150391H46.9023C53.3741 0.150525 58.6395 5.41582 58.6396 11.8877C58.6396 18.3597 53.3743 23.6258 46.9023 23.626H11.8877C5.41574 23.6259 0.150391 18.3597 0.150391 11.8877C0.150505 5.41581 5.41581 0.150505 11.8877 0.150391ZM11.8877 1.6875C6.263 1.68761 1.68761 6.263 1.6875 11.8877C1.6875 17.5125 6.26293 22.0888 11.8877 22.0889H46.9023C52.5271 22.0887 57.1025 17.5125 57.1025 11.8877C57.1024 6.26302 52.527 1.68763 46.9023 1.6875H11.8877Z" fill="#A76B37" stroke="white" stroke-width="0.3"/>
<mask id="path-2-inside-1_106_2653" fill="white">
<path d="M13.0668 7.08312C10.4174 7.08312 8.26172 9.23831 8.26172 11.8878C8.26172 14.5372 10.4174 16.6929 13.0668 16.6929C15.7163 16.6929 17.8719 14.5372 17.8719 11.8878C17.8719 9.23831 15.7164 7.08312 13.0668 7.08312ZM13.0668 14.8557C11.4301 14.8557 10.0989 13.5244 10.0989 11.8878C10.0989 10.2515 11.4301 8.92032 13.0668 8.92032C14.7035 8.92032 16.0347 10.2515 16.0347 11.8878C16.0348 13.5244 14.7035 14.8557 13.0668 14.8557ZM25.9895 9.94468C25.9895 8.36679 24.7059 7.08301 23.1279 7.08301H20.4748C20.2312 7.08304 19.9976 7.17983 19.8253 7.35209C19.6531 7.52436 19.5563 7.75799 19.5563 8.0016V15.7743C19.5601 16.0154 19.6585 16.2453 19.8304 16.4145C20.0022 16.5836 20.2337 16.6784 20.4748 16.6784C20.716 16.6784 20.9475 16.5836 21.1193 16.4145C21.2912 16.2453 21.3896 16.0154 21.3934 15.7743V12.8064H22.56L24.2493 16.1851C24.4785 16.6437 25.0334 16.8202 25.4818 16.596C25.5898 16.5421 25.686 16.4674 25.765 16.3763C25.8441 16.2852 25.9044 16.1793 25.9426 16.0649C25.9807 15.9504 25.996 15.8296 25.9874 15.7092C25.9789 15.5889 25.9467 15.4714 25.8927 15.3635L24.446 12.4696C25.3586 11.9909 25.9895 11.045 25.9895 9.94468ZM21.3934 8.92032H23.128C23.6926 8.92032 24.1525 9.38002 24.1525 9.9448C24.1525 10.5096 23.6928 10.9693 23.128 10.9693H21.3934V8.92032ZM50.5287 9.94468C50.5287 8.36679 49.245 7.08301 47.6665 7.08301H45.0135C44.7699 7.08304 44.5363 7.17983 44.364 7.35209C44.1918 7.52436 44.095 7.75799 44.0949 8.0016V15.7743C44.0988 16.0154 44.1972 16.2453 44.3691 16.4145C44.5409 16.5836 44.7724 16.6784 45.0135 16.6784C45.2547 16.6784 45.4862 16.5836 45.658 16.4145C45.8299 16.2453 45.9283 16.0154 45.9321 15.7743V12.8064H47.0988L48.7883 16.1851C49.0175 16.6437 49.5724 16.8202 50.0209 16.596C50.1288 16.5421 50.225 16.4674 50.3041 16.3763C50.3831 16.2852 50.4435 16.1793 50.4816 16.0649C50.5198 15.9504 50.535 15.8296 50.5265 15.7092C50.5179 15.5889 50.4857 15.4714 50.4318 15.3635L48.9848 12.4698C49.8978 11.9909 50.5287 11.045 50.5287 9.94468ZM45.9321 8.92032H47.6665C48.2317 8.92032 48.6915 9.38002 48.6915 9.9448C48.6915 10.5096 48.2318 10.9693 47.6665 10.9693H45.9321V8.92032ZM30.4915 7.08312H29.0763C28.8327 7.08315 28.599 7.17994 28.4268 7.35221C28.2545 7.52447 28.1577 7.7581 28.1577 8.00172V15.7744C28.1577 16.018 28.2545 16.2516 28.4268 16.4239C28.599 16.5961 28.8327 16.6929 29.0763 16.693H30.4915C33.1409 16.693 35.2965 14.5373 35.2965 11.8879C35.2965 9.23842 33.1409 7.08312 30.4915 7.08312ZM30.4915 14.8557H29.9949V8.9202H30.4915C32.1281 8.9202 33.4594 10.2514 33.4594 11.8876C33.4594 13.5244 32.1281 14.8557 30.4915 14.8557ZM41.5181 8.92032C41.7592 8.9165 41.9891 8.81805 42.1583 8.64619C42.3274 8.47434 42.4223 8.24286 42.4223 8.00172C42.4223 7.76058 42.3274 7.5291 42.1583 7.35725C41.9891 7.18539 41.7592 7.08694 41.5181 7.08312H37.8733C37.6297 7.08315 37.3961 7.17994 37.2238 7.35221C37.0515 7.52447 36.9547 7.7581 36.9547 8.00172V15.7744C36.9547 16.018 37.0515 16.2516 37.2238 16.4239C37.3961 16.5961 37.6297 16.6929 37.8733 16.693H41.5181C41.7592 16.6892 41.9891 16.5907 42.1583 16.4188C42.3274 16.247 42.4223 16.0155 42.4223 15.7744C42.4223 15.5332 42.3274 15.3018 42.1583 15.1299C41.9891 14.958 41.7592 14.8596 41.5181 14.8558H38.7919V12.8065H41.5181C41.7592 12.8027 41.9891 12.7042 42.1583 12.5323C42.3274 12.3605 42.4223 12.129 42.4223 11.8879C42.4223 11.6467 42.3274 11.4153 42.1583 11.2434C41.9891 11.0715 41.7592 10.9731 41.5181 10.9693H38.7919V8.92043H41.5181V8.92032ZM46.6439 36.8256L47.5738 35.8954C48.0815 35.3882 48.2466 34.6534 48.0052 33.978C47.7639 33.302 47.1701 32.8378 46.4556 32.7669L40.1242 32.1398C38.9782 32.0206 38.0001 32.9907 38.1134 34.147L38.7315 40.4753C38.8816 42.0183 40.7602 42.6949 41.8601 41.5961L42.7876 40.6686L45.5815 43.463C46.2994 44.1799 47.4659 44.1778 48.1803 43.4625L49.4313 42.2116C50.148 41.4953 50.148 40.3291 49.4313 39.6128L46.6439 36.8256ZM46.8799 42.1637L43.437 38.7204C43.3517 38.6351 43.2505 38.5674 43.139 38.5212C43.0276 38.4751 42.9082 38.4513 42.7876 38.4513C42.6669 38.4513 42.5475 38.4751 42.4361 38.5212C42.3246 38.5674 42.2234 38.6351 42.1381 38.7204L40.5597 40.297L39.9426 33.9682L46.2799 34.5907C46.2799 34.5907 46.2785 34.5926 46.2749 34.5961V34.5966L44.6957 36.1763C44.6103 36.2616 44.5426 36.3628 44.4965 36.4743C44.4503 36.5857 44.4265 36.7052 44.4265 36.8258C44.4265 36.9464 44.4503 37.0659 44.4965 37.1773C44.5426 37.2888 44.6103 37.39 44.6957 37.4753L48.1323 40.9129L46.8799 42.1637ZM36.5788 29.3087C36.2209 28.9499 35.6388 28.9499 35.2799 29.3087C35.1946 29.394 35.1269 29.4952 35.0807 29.6067C35.0345 29.7181 35.0107 29.8376 35.0107 29.9582C35.0107 30.0788 35.0345 30.1983 35.0807 30.3097C35.1269 30.4212 35.1946 30.5224 35.2799 30.6077L36.3089 31.6371C36.6668 31.9958 37.2489 31.996 37.6078 31.6371C37.6931 31.5518 37.7608 31.4506 37.807 31.3391C37.8532 31.2277 37.877 31.1082 37.877 30.9876C37.877 30.867 37.8532 30.7475 37.807 30.6361C37.7608 30.5247 37.6931 30.4234 37.6078 30.3381L36.5788 29.3087ZM41.5415 29.4697V28.0143C41.5377 27.7731 41.4392 27.5432 41.2674 27.374C41.0955 27.2049 40.864 27.1101 40.6229 27.1101C40.3818 27.1101 40.1503 27.2049 39.9784 27.374C39.8066 27.5432 39.7081 27.7731 39.7043 28.0143V29.4697C39.7081 29.7108 39.8066 29.9408 39.9784 30.1099C40.1503 30.2791 40.3818 30.3739 40.6229 30.3739C40.864 30.3739 41.0955 30.2791 41.2674 30.1099C41.4392 29.9408 41.5377 29.7108 41.5415 29.4697ZM35.4406 33.733H33.9851C33.744 33.7368 33.514 33.8353 33.3449 34.0071C33.1757 34.179 33.0809 34.4105 33.0809 34.6516C33.0809 34.8928 33.1757 35.1242 33.3449 35.2961C33.514 35.4679 33.744 35.5664 33.9851 35.5702H35.4406C35.6817 35.5664 35.9116 35.4679 36.0808 35.2961C36.2499 35.1242 36.3447 34.8928 36.3447 34.6516C36.3447 34.4105 36.2499 34.179 36.0808 34.0071C35.9116 33.8353 35.6817 33.7368 35.4406 33.733Z"/>
</mask>
<path d="M13.0668 7.08312C10.4174 7.08312 8.26172 9.23831 8.26172 11.8878C8.26172 14.5372 10.4174 16.6929 13.0668 16.6929C15.7163 16.6929 17.8719 14.5372 17.8719 11.8878C17.8719 9.23831 15.7164 7.08312 13.0668 7.08312ZM13.0668 14.8557C11.4301 14.8557 10.0989 13.5244 10.0989 11.8878C10.0989 10.2515 11.4301 8.92032 13.0668 8.92032C14.7035 8.92032 16.0347 10.2515 16.0347 11.8878C16.0348 13.5244 14.7035 14.8557 13.0668 14.8557ZM25.9895 9.94468C25.9895 8.36679 24.7059 7.08301 23.1279 7.08301H20.4748C20.2312 7.08304 19.9976 7.17983 19.8253 7.35209C19.6531 7.52436 19.5563 7.75799 19.5563 8.0016V15.7743C19.5601 16.0154 19.6585 16.2453 19.8304 16.4145C20.0022 16.5836 20.2337 16.6784 20.4748 16.6784C20.716 16.6784 20.9475 16.5836 21.1193 16.4145C21.2912 16.2453 21.3896 16.0154 21.3934 15.7743V12.8064H22.56L24.2493 16.1851C24.4785 16.6437 25.0334 16.8202 25.4818 16.596C25.5898 16.5421 25.686 16.4674 25.765 16.3763C25.8441 16.2852 25.9044 16.1793 25.9426 16.0649C25.9807 15.9504 25.996 15.8296 25.9874 15.7092C25.9789 15.5889 25.9467 15.4714 25.8927 15.3635L24.446 12.4696C25.3586 11.9909 25.9895 11.045 25.9895 9.94468ZM21.3934 8.92032H23.128C23.6926 8.92032 24.1525 9.38002 24.1525 9.9448C24.1525 10.5096 23.6928 10.9693 23.128 10.9693H21.3934V8.92032ZM50.5287 9.94468C50.5287 8.36679 49.245 7.08301 47.6665 7.08301H45.0135C44.7699 7.08304 44.5363 7.17983 44.364 7.35209C44.1918 7.52436 44.095 7.75799 44.0949 8.0016V15.7743C44.0988 16.0154 44.1972 16.2453 44.3691 16.4145C44.5409 16.5836 44.7724 16.6784 45.0135 16.6784C45.2547 16.6784 45.4862 16.5836 45.658 16.4145C45.8299 16.2453 45.9283 16.0154 45.9321 15.7743V12.8064H47.0988L48.7883 16.1851C49.0175 16.6437 49.5724 16.8202 50.0209 16.596C50.1288 16.5421 50.225 16.4674 50.3041 16.3763C50.3831 16.2852 50.4435 16.1793 50.4816 16.0649C50.5198 15.9504 50.535 15.8296 50.5265 15.7092C50.5179 15.5889 50.4857 15.4714 50.4318 15.3635L48.9848 12.4698C49.8978 11.9909 50.5287 11.045 50.5287 9.94468ZM45.9321 8.92032H47.6665C48.2317 8.92032 48.6915 9.38002 48.6915 9.9448C48.6915 10.5096 48.2318 10.9693 47.6665 10.9693H45.9321V8.92032ZM30.4915 7.08312H29.0763C28.8327 7.08315 28.599 7.17994 28.4268 7.35221C28.2545 7.52447 28.1577 7.7581 28.1577 8.00172V15.7744C28.1577 16.018 28.2545 16.2516 28.4268 16.4239C28.599 16.5961 28.8327 16.6929 29.0763 16.693H30.4915C33.1409 16.693 35.2965 14.5373 35.2965 11.8879C35.2965 9.23842 33.1409 7.08312 30.4915 7.08312ZM30.4915 14.8557H29.9949V8.9202H30.4915C32.1281 8.9202 33.4594 10.2514 33.4594 11.8876C33.4594 13.5244 32.1281 14.8557 30.4915 14.8557ZM41.5181 8.92032C41.7592 8.9165 41.9891 8.81805 42.1583 8.64619C42.3274 8.47434 42.4223 8.24286 42.4223 8.00172C42.4223 7.76058 42.3274 7.5291 42.1583 7.35725C41.9891 7.18539 41.7592 7.08694 41.5181 7.08312H37.8733C37.6297 7.08315 37.3961 7.17994 37.2238 7.35221C37.0515 7.52447 36.9547 7.7581 36.9547 8.00172V15.7744C36.9547 16.018 37.0515 16.2516 37.2238 16.4239C37.3961 16.5961 37.6297 16.6929 37.8733 16.693H41.5181C41.7592 16.6892 41.9891 16.5907 42.1583 16.4188C42.3274 16.247 42.4223 16.0155 42.4223 15.7744C42.4223 15.5332 42.3274 15.3018 42.1583 15.1299C41.9891 14.958 41.7592 14.8596 41.5181 14.8558H38.7919V12.8065H41.5181C41.7592 12.8027 41.9891 12.7042 42.1583 12.5323C42.3274 12.3605 42.4223 12.129 42.4223 11.8879C42.4223 11.6467 42.3274 11.4153 42.1583 11.2434C41.9891 11.0715 41.7592 10.9731 41.5181 10.9693H38.7919V8.92043H41.5181V8.92032ZM46.6439 36.8256L47.5738 35.8954C48.0815 35.3882 48.2466 34.6534 48.0052 33.978C47.7639 33.302 47.1701 32.8378 46.4556 32.7669L40.1242 32.1398C38.9782 32.0206 38.0001 32.9907 38.1134 34.147L38.7315 40.4753C38.8816 42.0183 40.7602 42.6949 41.8601 41.5961L42.7876 40.6686L45.5815 43.463C46.2994 44.1799 47.4659 44.1778 48.1803 43.4625L49.4313 42.2116C50.148 41.4953 50.148 40.3291 49.4313 39.6128L46.6439 36.8256ZM46.8799 42.1637L43.437 38.7204C43.3517 38.6351 43.2505 38.5674 43.139 38.5212C43.0276 38.4751 42.9082 38.4513 42.7876 38.4513C42.6669 38.4513 42.5475 38.4751 42.4361 38.5212C42.3246 38.5674 42.2234 38.6351 42.1381 38.7204L40.5597 40.297L39.9426 33.9682L46.2799 34.5907C46.2799 34.5907 46.2785 34.5926 46.2749 34.5961V34.5966L44.6957 36.1763C44.6103 36.2616 44.5426 36.3628 44.4965 36.4743C44.4503 36.5857 44.4265 36.7052 44.4265 36.8258C44.4265 36.9464 44.4503 37.0659 44.4965 37.1773C44.5426 37.2888 44.6103 37.39 44.6957 37.4753L48.1323 40.9129L46.8799 42.1637ZM36.5788 29.3087C36.2209 28.9499 35.6388 28.9499 35.2799 29.3087C35.1946 29.394 35.1269 29.4952 35.0807 29.6067C35.0345 29.7181 35.0107 29.8376 35.0107 29.9582C35.0107 30.0788 35.0345 30.1983 35.0807 30.3097C35.1269 30.4212 35.1946 30.5224 35.2799 30.6077L36.3089 31.6371C36.6668 31.9958 37.2489 31.996 37.6078 31.6371C37.6931 31.5518 37.7608 31.4506 37.807 31.3391C37.8532 31.2277 37.877 31.1082 37.877 30.9876C37.877 30.867 37.8532 30.7475 37.807 30.6361C37.7608 30.5247 37.6931 30.4234 37.6078 30.3381L36.5788 29.3087ZM41.5415 29.4697V28.0143C41.5377 27.7731 41.4392 27.5432 41.2674 27.374C41.0955 27.2049 40.864 27.1101 40.6229 27.1101C40.3818 27.1101 40.1503 27.2049 39.9784 27.374C39.8066 27.5432 39.7081 27.7731 39.7043 28.0143V29.4697C39.7081 29.7108 39.8066 29.9408 39.9784 30.1099C40.1503 30.2791 40.3818 30.3739 40.6229 30.3739C40.864 30.3739 41.0955 30.2791 41.2674 30.1099C41.4392 29.9408 41.5377 29.7108 41.5415 29.4697ZM35.4406 33.733H33.9851C33.744 33.7368 33.514 33.8353 33.3449 34.0071C33.1757 34.179 33.0809 34.4105 33.0809 34.6516C33.0809 34.8928 33.1757 35.1242 33.3449 35.2961C33.514 35.4679 33.744 35.5664 33.9851 35.5702H35.4406C35.6817 35.5664 35.9116 35.4679 36.0808 35.2961C36.2499 35.1242 36.3447 34.8928 36.3447 34.6516C36.3447 34.4105 36.2499 34.179 36.0808 34.0071C35.9116 33.8353 35.6817 33.7368 35.4406 33.733Z" fill="#A76B37" stroke="white" stroke-width="0.6" mask="url(#path-2-inside-1_106_2653)"/>
</svg>
