<svg width="23" height="29" viewBox="0 0 23 29" fill="none" xmlns="http://www.w3.org/2000/svg">
<path d="M9.23611 19.1003C8.47657 23.0771 7.55097 26.8892 4.80594 28.8805C3.95976 22.8706 6.04922 18.3581 7.02103 13.5669C5.36477 10.78 7.2203 5.17445 10.7104 6.55635C15.0063 8.25448 6.99071 16.9127 12.371 17.9957C17.9896 19.1234 20.2827 8.24871 16.7983 4.71237C11.766 -0.39648 2.14755 4.59252 3.33163 11.9063C3.61898 13.694 5.46585 14.2355 4.06951 16.7033C0.847958 15.99 -0.113742 13.4485 0.0104415 10.0609C0.209713 4.51598 4.99077 0.635975 9.78772 0.0973654C15.8539 -0.582755 21.5476 2.32545 22.3346 8.03066C23.2197 14.4723 19.5968 21.4497 13.1089 20.9472C11.3501 20.81 10.6137 19.9378 9.23611 19.1003Z" fill="white"/>
</svg>
