<svg width="21" height="20" viewBox="0 0 21 20" fill="none" xmlns="http://www.w3.org/2000/svg">
<path d="M10.4995 16.755L5.40971 19.8125C5.18486 19.9551 4.9498 20.0163 4.70451 19.9959C4.45922 19.9755 4.24459 19.894 4.06062 19.7513C3.87665 19.6086 3.73357 19.4305 3.63136 19.2169C3.52916 19.0032 3.50872 18.7635 3.57004 18.4977L4.91913 12.7191L0.411935 8.83611C0.207526 8.65266 0.0799757 8.44353 0.0292824 8.20872C-0.0214108 7.9739 -0.00628465 7.7448 0.074661 7.5214C0.155607 7.298 0.278251 7.11455 0.442596 6.97105C0.60694 6.82755 0.831789 6.73583 1.11714 6.69588L7.06542 6.17611L9.36501 0.733795C9.46722 0.489197 9.62584 0.305748 9.84087 0.183449C10.0559 0.0611494 10.2754 0 10.4995 0C10.7235 0 10.943 0.0611494 11.1581 0.183449C11.3731 0.305748 11.5317 0.489197 11.6339 0.733795L13.9335 6.17611L19.8818 6.69588C20.168 6.73664 20.3928 6.82837 20.5564 6.97105C20.7199 7.11373 20.8425 7.29718 20.9243 7.5214C21.0061 7.74561 21.0216 7.97513 20.9709 8.20994C20.9202 8.44476 20.7922 8.65348 20.587 8.83611L16.0798 12.7191L17.4289 18.4977C17.4902 18.7627 17.4698 19.0024 17.3676 19.2169C17.2654 19.4313 17.1223 19.6094 16.9383 19.7513C16.7544 19.8932 16.5397 19.9747 16.2944 19.9959C16.0492 20.0171 15.8141 19.956 15.5892 19.8125L10.4995 16.755Z" fill="#EB6E00"/>
</svg>
