<svg width="26" height="30" viewBox="0 0 26 30" fill="none" xmlns="http://www.w3.org/2000/svg">
<path d="M22.1246 6.3691C21.9277 6.26538 21.7361 6.1514 21.5505 6.02762C21.0108 5.66355 20.5161 5.23425 20.0772 4.74903C18.977 3.46383 18.5663 2.16009 18.4159 1.24814H18.4211C18.2954 0.489727 18.3473 0 18.3563 0H13.348V19.7784C13.3497 20.0431 13.3462 20.3056 13.3376 20.5659L13.3324 20.6625C13.3324 20.6766 13.3311 20.6912 13.3285 20.7062V20.7181C13.2759 21.4276 13.0534 22.113 12.6806 22.714C12.3078 23.315 11.796 23.8132 11.1904 24.1647C10.5592 24.5334 9.84421 24.726 9.11711 24.7233C6.78463 24.7233 4.89272 22.7803 4.89272 20.3806C4.89272 17.9809 6.78463 16.0366 9.11711 16.0366C9.55898 16.0366 9.99827 16.1081 10.4181 16.2484L10.4246 11.0387C9.14953 10.8709 7.85423 10.9747 6.62043 11.3438C5.38663 11.7128 4.2411 12.339 3.25609 13.1829C2.39321 13.949 1.66751 14.8627 1.11151 15.883C0.900286 16.255 0.102058 17.752 0.00616727 20.1794C-0.0547365 21.5559 0.350857 22.9854 0.543934 23.5744V23.5877C0.664446 23.9344 1.13613 25.1204 1.90325 26.1197C2.52248 26.9212 3.25331 27.6258 4.07246 28.2109V28.1977L4.08413 28.2109C6.50732 29.8919 9.19615 29.782 9.19615 29.782C9.66136 29.7622 11.2202 29.782 12.9903 28.9257C14.9535 27.9753 16.0705 26.5604 16.0705 26.5604C16.7853 25.7153 17.3532 24.7515 17.7499 23.7107C18.2034 22.493 18.3537 21.0345 18.3537 20.4521V9.95735C18.4146 9.99441 19.2245 10.541 19.2245 10.541C19.2245 10.541 20.3908 11.3048 22.2088 11.8011C23.5124 12.1545 25.2709 12.2299 25.2709 12.2299V7.15134C24.6553 7.22017 23.4049 7.02163 22.1233 6.37043" fill="white"/>
</svg>
