<svg width="33" height="23" viewBox="0 0 33 23" fill="none" xmlns="http://www.w3.org/2000/svg">
<path d="M16.2295 0C16.2732 3.21543e-06 26.3822 0.00137394 28.8984 0.6875C29.5872 0.873897 30.2152 1.23766 30.7197 1.74219C31.2242 2.24671 31.5881 2.87478 31.7744 3.56348C32.8474 7.88302 32.5993 14.7051 31.7949 19.1914C31.6085 19.8801 31.2448 20.5082 30.7402 21.0127C30.2357 21.5172 29.6077 21.881 28.9189 22.0674C26.3972 22.755 16.25 22.7549 16.25 22.7549C16.2271 22.7549 6.10039 22.7541 3.58105 22.0674C2.89238 21.881 2.26426 21.5172 1.75977 21.0127C1.25526 20.5082 0.891445 19.8801 0.705078 19.1914C-0.374313 14.8906 -0.0780815 8.06395 0.68457 3.58398C0.870946 2.89537 1.23386 2.26716 1.73828 1.7627C2.24278 1.25817 2.87086 0.89441 3.55957 0.708008C6.08107 0.0203673 16.2295 0 16.2295 0ZM12.999 16.2529L21.418 11.377L12.999 6.50098V16.2529Z" fill="white"/>
</svg>
